<svg width="35" height="35" viewBox="0 0 35 35" fill="none" xmlns="http://www.w3.org/2000/svg">
<path d="M10.6838 26.3842C10.2064 26.7848 9.793 26.9834 9.36254 26.9792C8.37064 26.9691 7.54439 25.9546 5.89191 23.9256L3.68258 21.2127C2.77274 20.0956 2.66143 18.4322 3.41253 17.177C4.27049 15.7433 5.91592 15.3417 7.19827 16.0611M15.928 12.3959C17.0817 11.1794 18.3129 9.96367 19.6557 8.73078C20.3035 8.13598 21.111 7.92531 21.8748 8.05997" stroke="#141B34" stroke-width="2" stroke-linecap="round"/>
<path d="M20.571 23.7869C23.8667 19.967 27.0482 17.3755 31.0446 13.7057C32.2407 12.6073 32.4255 10.6819 31.487 9.31777C30.4898 7.868 28.5947 7.57823 27.3121 8.73078C23.6514 12.0201 20.8034 15.1873 18.1019 18.5725C17.9601 18.7501 17.8892 18.8389 17.8156 18.889C17.6291 19.0157 17.3959 19.0171 17.2082 18.8925C17.1341 18.8433 17.0631 18.7561 16.9211 18.582L15.4815 16.8162C14.168 15.2051 11.812 15.3834 10.7153 17.177C9.94786 18.4322 10.0616 20.0956 10.9913 21.2127L13.2487 23.9256C14.9371 25.9546 15.7814 26.9691 16.7949 26.9792C17.8085 26.9891 18.7292 25.9216 20.571 23.7869Z" stroke="#141B34" stroke-width="2"/>
</svg>
